<svg xmlns="http://www.w3.org/2000/svg" width="1080" height="1920" fill="none" viewBox="0 0 1080 1920">
  <g class="Get Started" clip-path="url(#clip0_217_2)">
    <path fill="#fff" d="M0 0h1080v1920H0z"/>
    <path fill="#EEEDDE" d="M-254.176 230.529c-200.215-302.78-1.033-452.312 172.135-468.921C96.923-257.903 698.009-341.971 1003-146.5 1113-76 774.5 369 411.934 298.28 101.132 237.657 48 687.5-254.176 230.529z" class="Vector 2"/>
    <path fill="#EEEDDE" d="M1363.33 1217.01c-429.89-285.192-509.065 361.24-494.915 720.1 15.417 355.19 522.115 445.65 821.565 118.01 299.46-327.64 210.72-481.62-326.65-838.11z" class="Vector 3"/>
    <g class="Untitled-1 1" clip-path="url(#clip1_217_2)">
      <path fill="#000" d="M587.888 847.592c4.949 9.756 11.179 19.06 17.709 27.816 3.769 5.047 8.641 11.955 14.335 5.378 8.029-9.265 15.688-18.786 24.163-27.676 12.001-12.604 25.246-23.756 39.276-34.042 8.724-6.372 18.965-11.84 26.949-19.117 5.369-4.92 2.487-13.217.542-19.118-4.413-13.439-10.56-26.337-16.497-39.152-7.991-17.257-16.191-34.412-23.978-51.77-7.257-16.167-14.208-32.5-21.682-48.552-4.183-9.024-8.328-20.584-15.63-27.683-2.283-2.217-4.942-3.32-8.015-2.141-7.882 3.021-15.579 8.527-22.664 13.064a308.398 308.398 0 00-34.168 25.662c-8.329 7.137-17.218 14.096-24.66 22.144-7.442 8.049-14.285 16.499-20.974 25.083-2.965 3.823-8.373 8.622-7.314 13.943 1.02 5.136 3.972 10.227 6.275 14.86 18.812 37.923 41.233 73.985 61.123 111.341a421.934 421.934 0 015.197 10.017c2.353 4.703 9.566.905 7.225-3.785-17.466-34.928-38.006-68.32-56.557-102.674-3.75-6.946-7.474-13.911-10.911-21.029-1.186-2.447-2.36-4.913-3.374-7.443-.465-1.147-.376-.994-.714-1.957a10.292 10.292 0 00-.287-1.045c-.395-.783.192-.044-.051 0 .523-.121-1.313 1.817.153.293.97-1 1.716-2.408 2.551-3.536 2.71-3.626 5.529-7.182 8.367-10.706 5.943-7.386 11.937-15.077 18.888-21.558 18.404-17.149 38.116-33.596 59.715-46.564a288.425 288.425 0 0110.56-6.048c.44-.242 5.28-2.797 5.274-2.81-.007-.013-1.773.535-1.709.134-.173 1.02-.377-1.236.159.293.714 2.046 3.89 5.321 5.191 7.615 6.511 11.522 11.727 23.853 17.097 35.96 13.921 31.372 28.613 62.368 42.725 93.676 4.707 10.457 10.121 21.322 12.538 32.608.263 1.335.43 2.688.497 4.047.07.93.262.21-.255.682-2.64 2.427-5.88 4.352-8.813 6.372-24.233 16.728-46.833 34.475-66.416 56.581-3.878 4.378-7.653 8.845-11.396 13.344-.421.51-5.79 6.01-5.612 6.551.179.542 4.03-.854 4.049-.516 0-.274-1.077-1.109-1.275-1.338a73.142 73.142 0 01-3.896-4.888c-3.265-4.378-6.294-8.921-9.215-13.567-2.551-4.078-5.102-8.208-7.276-12.515-2.404-4.71-9.623-.912-7.219 3.766z" class="Vector"/>
      <path fill="#000" d="M519.801 710.927c-14.546-10.234-32.453-15.472-49.741-18.913a261.65 261.65 0 00-59.095-4.965c-14.667.453-31.024 1.504-44.48 8.004-7.085 3.416-13.105 9.674-10.445 17.964 9.699 30.244 22.765 59.851 35.57 88.865 9.904 22.431 20.407 44.607 32 66.236 5.638 10.514 11.549 20.889 17.888 31.002 1.964 3.135 4.84 10.279 8.596 11.47 1.881.593 3.903-.28 5.65-.904 22.319-7.953 43.88-17.072 67.137-22.19 26.924-5.932 55.416-6.206 82.62-1.752 1.352.223 2.704.452 4.043.746 1.856.401 2.245 1.236.466-.529-.3-1.307-.638-2.613-.906-3.919l-.204.529 2.991-2.804 2.385.936c.153 1.645.3 3.282.453 4.92.083-.127.166-.255.242-.389 2.806-4.429-4.1-8.756-6.913-4.32l-.242.388c-.873 1.377-.867 3.76.453 4.92 3.048 2.67 7.142 2.103 8.654-1.854a3.988 3.988 0 00-.906-3.92c-1.346-1.338-3.189-1.586-4.987-1.911-3.947-.784-7.952-1.345-11.944-1.848a255.656 255.656 0 00-37.669-1.912c-28.505.637-55.952 7.73-82.62 17.454-8.373 3.053-16.58 6.558-24.96 9.559-.637.223-1.913.389-2.423.809l-.313.077c-1.364.236-.369.567 2.985 1.013.121-.331-1.913-2.919-2.149-3.275a421.15 421.15 0 01-8.928-14.377c-11.97-20.175-22.594-41.147-32.574-62.374-15.942-33.851-30.38-68.485-43.299-103.598-1.148-3.135-2.507-6.289-3.406-9.514-.574-2.071-.389-2.912.893-4.403 2.946-3.416 8.029-5.098 12.193-6.315a111.711 111.711 0 0121.146-3.824c20.585-1.982 41.737-.873 62.125 2.466 19.073 3.123 39.307 8.125 55.333 19.398 4.298 3.021 8.609-3.9 4.323-6.908l.058-.038z" class="Vector_2"/>
      <path fill="#000" d="M355.51 711.029c-4.463 2.122-8.978 4.193-13.43 6.373-3.532 1.739-6.721 3.944-5.834 8.475 1.039 5.13 4.049 10.489 5.962 15.364 4.719 12.031 9.5 24.033 14.342 36.005 10.841 26.809 22.045 53.529 34.212 79.752 9.566 20.634 19.329 41.943 32.778 60.405 3.514 4.824 7.812 10.502 13.628 12.655 4.107 1.523 8.928 2.282 13.245 2.792 2.685.318 4.355-.071 6.836-1.192 5.102-2.32 10.171-4.76 15.305-7.061 43.274-19.506 89.826-35.66 137.941-33.749 5.241.211 5.503-7.94.242-8.15-39.614-1.568-78.329 8.864-114.92 23.202a579.099 579.099 0 00-27.918 11.834c-4.254 1.912-8.622 3.722-12.754 5.882-2.806 1.465-4.407 1.134-7.544.516-3.023-.593-7.27-1.37-8.928-2.396-1.913-1.217-3.692-3.103-5.44-5.143-12.754-14.905-21.299-34.144-29.729-51.668-11.913-24.776-22.728-50.081-33.212-75.495a3279.787 3279.787 0 01-16.318-40.427 5052.919 5052.919 0 01-6.945-17.665l-1.377-3.549c-.217-.561-.415-1.173-.638-1.721-.408-.866-.3-1.911-.721-1.166-.841 1.447 2.015-.465 2.449-.669l4.196-1.988 8.36-4.015c4.751-2.256.944-9.463-3.788-7.22v.019z" class="Vector_3"/>
      <path fill="#000" d="M339.185 732.6l-11.198 7.685c-1.913 1.307-2.716 3.301-1.715 5.5 23.544 51.789 47.119 103.649 74.611 153.482a1025.509 1025.509 0 0021.127 36.476c5.382 8.819 11.121 23.393 23.875 17.843 12.754-5.551 24.928-12.694 37.624-18.481a697.434 697.434 0 0138.141-16.141 708.238 708.238 0 0190.605-28.313c5.101-1.236 3.277-9.177-1.831-7.94a718.907 718.907 0 00-149.4 54.096c-5.624 2.778-11.115 5.856-16.771 8.565-4.298 2.051-5.988.994-8.431-2.792-1.913-2.956-3.724-5.958-5.56-8.959a939.244 939.244 0 01-21.204-36.432c-13.015-23.476-25.151-47.424-36.808-71.601-13.334-27.702-26.05-55.639-38.747-83.588l-1.721 5.505 11.229-7.685c4.279-2.938.53-10.196-3.826-7.22z" class="Vector_4"/>
      <path fill="#000" d="M339.44 770.822l-11.803 8.584c-1.41 1.026-1.652 3.454-.849 4.894l104.398 188.69a4.153 4.153 0 005.504 1.714c51.073-26.127 102.612-51.738 155.024-75.055 7.194-3.186 14.82-7.341 22.25-8.922 5.14-1.083 3.303-9.023-1.837-7.94-6.6 1.389-13.086 4.754-19.227 7.431-11.599 5.059-23.078 10.399-34.531 15.784-28.971 13.618-57.75 27.657-86.434 41.868a4864.845 4864.845 0 00-39.008 19.614l5.51 1.721-104.43-188.703c-.28 1.632-.567 3.263-.848 4.894l11.804-8.539c4.241-3.084-1.32-9.049-5.523-6.003v-.032z" class="Vector_5"/>
      <path fill="#000" d="M673.537 704.166a282.013 282.013 0 0132.893-8.068c2.194-.395 4.368-1.344 5.822.223 1.454 1.568 2.487 6.01 3.31 8.004a4802.91 4802.91 0 0133.536 84.079 5558.38 5558.38 0 0112.965 33.774c.952 2.511 1.9 5.022 2.844 7.533.695 1.841 2.991 5.627 2.653 7.506-.829 4.671-13.213 4.971-16.861 5.672-22.402 4.289-44.779 8.749-66.958 14.153a580.582 580.582 0 00-71.62 22.126c-4.898 1.911-1.053 9.087 3.788 7.22 47.502-18.315 97.37-27.67 147.117-37.528 4.343-.86 9.004-2.16 11.427-6.245 2.551-4.251.638-8.705-.911-12.898a4037.883 4037.883 0 00-14.323-37.598 4412.831 4412.831 0 00-29.602-74.813 3868.45 3868.45 0 00-8.36-20.488c-1.882-4.569-3.61-9.38-9.336-9.635-5.937-.267-12.646 1.912-18.392 3.186-7.352 1.645-14.622 3.614-21.822 5.831-4.993 1.536-3.188 9.489 1.83 7.94v.026z" class="Vector_6"/>
      <path fill="#000" d="M732.544 726.616l13.991-1.478-4.528-2.078a782.914 782.914 0 0144.059 145.931l3.055-4.882c-14.374 2.275-29.392.555-43.9.721-14.507.165-29.028.86-43.497 2.058a623.079 623.079 0 00-85.101 13.025c-5.102 1.147-3.297 9.087 1.836 7.94a609.769 609.769 0 0186.97-13.133 607.822 607.822 0 0143.504-1.772c13.972-.07 28.161 1.275 42.018-.898 2.225-.357 3.463-2.849 3.061-4.888a793.561 793.561 0 00-44.786-147.887c-.746-1.81-2.825-2.262-4.527-2.077l-13.966 1.478c-5.217.548-3.335 8.488 1.83 7.94h-.019z" class="Vector_7"/>
      <path fill="#000" d="M620.309 890.759a5220.938 5220.938 0 01164.928 15.53c2.034.223 4.356-1.912 4.196-3.951a132.196 132.196 0 00-6.039-30.983c-1.607-4.958-9.565-3.186-7.946 1.829a123.927 123.927 0 015.835 28.912l4.196-3.951a5137.75 5137.75 0 00-164.928-15.504c-5.235-.408-5.478 7.736-.242 8.144v-.026z" class="Vector_8"/>
      <path fill="#000" d="M616.1 891.989a686.139 686.139 0 0184.661 12.809 679.906 679.906 0 0140.583 10.094c12.971 3.632 25.929 7.309 39.448 8.125a4.14 4.14 0 004.196-3.951 48.508 48.508 0 00-2.149-17.442c-1.556-4.983-9.514-3.186-7.945 1.829a42.4 42.4 0 011.913 15.364l4.196-3.951c-14.087-.847-27.517-5.098-41.043-8.813a687.969 687.969 0 00-40.71-9.884 705.44 705.44 0 00-82.901-12.33c-5.223-.459-5.459 7.685-.243 8.15h-.006z" class="Vector_9"/>
      <path fill="#000" d="M544.161 721.059a235.902 235.902 0 0173.406-62.775c2.302-1.275.408-4.869-1.914-3.607a240.72 240.72 0 00-74.955 64.222c-1.6 2.078 1.869 4.219 3.457 2.16h.006z" class="Vector_10"/>
      <path fill="#000" d="M551.686 739.897a306.536 306.536 0 0176.415-61.495c2.283-1.275.389-4.907-1.913-3.607a309.807 309.807 0 00-77.276 62.081c-1.741 1.912 1.001 4.951 2.755 3.001l.019.02z" class="Vector_11"/>
      <path fill="#000" d="M563.241 759.11a361.66 361.66 0 0167.941-60.182c2.149-1.466.274-5.098-1.914-3.607a365.725 365.725 0 00-68.801 60.787c-1.715 1.95 1.033 4.971 2.761 3.002h.013z" class="Vector_12"/>
      <path fill="#000" d="M577.685 785.345a255.659 255.659 0 0166.588-62.017c2.194-1.408.313-5.021-1.913-3.607a261.4 261.4 0 00-68.176 63.464c-1.569 2.103 1.913 4.25 3.463 2.16h.038z" class="Vector_13"/>
      <path fill="#000" d="M593.729 805.941a407.323 407.323 0 0165.479-56.843c2.13-1.484.256-5.098-1.913-3.613a412.585 412.585 0 00-66.32 57.455c-1.78 1.911.969 4.919 2.761 3.001h-.007z" class="Vector_14"/>
      <path fill="#000" d="M607.351 832.03a557.25 557.25 0 0165.625-56.511c2.111-1.555-.637-4.544-2.761-3.002a558.491 558.491 0 00-65.626 56.512c-1.842 1.854.912 4.862 2.762 3.001z" class="Vector_15"/>
      <path fill="#000" d="M408.573 737.01a185.194 185.194 0 01101.918-3.046c2.55.637 3.717-3.257 1.167-3.907a189.153 189.153 0 00-103.997 2.983c-2.487.796-1.594 4.773.912 3.97z" class="Vector_16"/>
      <path fill="#000" d="M422.539 766.54a193.35 193.35 0 0198.008-13.261c2.602.318 2.71-3.754.121-4.079a197.423 197.423 0 00-100.023 13.72c-2.43 1.014-.517 4.608 1.913 3.614l-.019.006z" class="Vector_17"/>
      <path fill="#000" d="M435.937 798.052a159.616 159.616 0 0198.027-17.41c2.589.37 2.698-3.702.121-4.072a163.186 163.186 0 00-100.042 17.875c-2.315 1.243-.421 4.856 1.913 3.607h-.019z" class="Vector_18"/>
      <path fill="#000" d="M456.484 824.128c30.01-9.673 61.812-19.678 93.576-13.172 2.55.523 3.743-3.377 1.167-3.9-32.568-6.672-64.861 3.187-95.655 13.102-2.481.797-1.582 4.773.918 3.97h-.006z" class="Vector_19"/>
      <path fill="#000" d="M461.764 854.487a196.845 196.845 0 0199.149-19.417c2.621.172 2.742-3.9.121-4.072A200.944 200.944 0 00459.87 850.88c-2.366 1.153-.466 4.76 1.913 3.607h-.019z" class="Vector_20"/>
      <path fill="#000" d="M702.419 722.92a35.979 35.979 0 00-15.439 5.035 2.088 2.088 0 00-.861 2.752 2.066 2.066 0 002.755.861 31.64 31.64 0 0113.392-4.576 2.103 2.103 0 002.098-1.975c0-.994-.874-2.205-1.977-2.097h.032z" class="Vector_21"/>
      <path fill="#000" d="M710.594 739.412l-16.427 5.583a2.092 2.092 0 00-1.524 2.44 2.056 2.056 0 002.442 1.53l16.421-5.57a2.105 2.105 0 001.531-2.447c-.23-.988-1.397-1.88-2.443-1.523v-.013z" class="Vector_22"/>
      <path fill="#000" d="M700.876 766.298l12.422-4.098a2.075 2.075 0 001.524-2.44c-.268-.988-1.358-1.912-2.442-1.53l-12.423 4.098a2.088 2.088 0 00-1.53 2.447c.274.981 1.365 1.88 2.449 1.523z" class="Vector_23"/>
      <path fill="#000" d="M709.516 785.485l11.556-3.823a2.092 2.092 0 001.53-2.447c-.274-.981-1.365-1.912-2.442-1.529l-11.555 3.823a2.094 2.094 0 00-1.531 2.447c.274.981 1.365 1.912 2.442 1.523v.006z" class="Vector_24"/>
      <path fill="#000" d="M645.523 848.758a227.67 227.67 0 0175.561-28.619c2.551-.484 1.665-4.461-.918-3.97a230.781 230.781 0 00-76.524 28.982c-2.245 1.345-.357 4.958 1.913 3.607h-.032z" class="Vector_25"/>
      <path fill="#000" d="M786.563 669.754a15.35 15.35 0 01-14.007-9.634 15.337 15.337 0 013.481-16.633 15.36 15.36 0 0116.697-3.218 15.347 15.347 0 019.421 14.147 15.462 15.462 0 01-4.618 10.894 15.48 15.48 0 01-10.974 4.444zm0-26.592a11.262 11.262 0 00-10.859 13.549 11.252 11.252 0 008.888 8.753 11.264 11.264 0 0013.399-11.048 11.34 11.34 0 00-3.383-7.99 11.358 11.358 0 00-8.045-3.264z" class="Vector_26"/>
      <path fill="#000" d="M476.125 1007c-2.219-.03-4.38-.72-6.209-1.97a11.255 11.255 0 01-4.651-11.568 11.253 11.253 0 0115.362-8.085 11.255 11.255 0 016.913 10.376 11.322 11.322 0 01-3.381 7.977 11.34 11.34 0 01-8.034 3.27zm0-18.41a7.171 7.171 0 00-6.549 4.491 7.158 7.158 0 005.29 9.699c1.387.27 2.823.12 4.127-.42a7.166 7.166 0 004.402-6.607 7.228 7.228 0 00-7.27-7.163z" class="Vector_27"/>
      <path fill="#000" d="M568.527 998.818a8.183 8.183 0 01-4.52-1.429 8.178 8.178 0 01-1.131-12.574 8.19 8.19 0 0112.568 1.285 8.182 8.182 0 011.374 4.535 8.257 8.257 0 01-8.291 8.183zm0-12.274a4.108 4.108 0 00-3.747 2.571 4.09 4.09 0 00.928 4.446 4.1 4.1 0 006.977-2.926 4.122 4.122 0 00-4.158-4.091z" class="Vector_28"/>
      <path fill="#000" d="M800.625 974.704a10.205 10.205 0 01-9.303-6.412 10.186 10.186 0 012.321-11.052 10.206 10.206 0 0115.649 1.622 10.186 10.186 0 011.708 5.646 10.316 10.316 0 01-10.375 10.196zm0-16.364a6.149 6.149 0 00-5.62 3.849 6.139 6.139 0 004.534 8.324 6.156 6.156 0 006.286-2.626 6.148 6.148 0 001.03-3.404 6.191 6.191 0 00-6.23-6.143z" class="Vector_29"/>
      <path fill="#000" d="M304.75 731.313a9.427 9.427 0 01-8.608-5.91 9.417 9.417 0 016.96-12.755 9.43 9.43 0 019.634 4.029 9.414 9.414 0 011.579 5.217 9.492 9.492 0 01-2.832 6.687 9.508 9.508 0 01-6.733 2.732zm0-14.752a5.342 5.342 0 00-2.945.935 5.326 5.326 0 00-.726 8.196 5.336 5.336 0 009.085-3.798 5.377 5.377 0 00-5.414-5.333z" class="Vector_30"/>
      <path fill="#000" d="M291.995 782.943h-6.944v-5.417c0-4.193-6.62-4.199-6.62 0v5.417h-6.204c-4.254 0-4.26 6.519 0 6.519h6.236v6.863c0 4.193 6.62 4.206 6.62 0v-6.863h6.912c4.279 0 4.286-6.519 0-6.519z" class="Vector_31"/>
      <path fill="#000" d="M737.907 626.358h-6.97v-5.417c0-4.193-6.613-4.199-6.613 0v5.417h-6.237c-4.26 0-4.266 6.519 0 6.519h6.269v6.863c0 4.193 6.613 4.206 6.613 0v-6.863h6.97c4.221 0 4.234-6.519-.032-6.519z" class="Vector_32"/>
    </g>
  </g>
  <defs>
    <clipPath id="clip0_217_2" class="clip0_217_2">
      <path fill="#fff" d="M0 0h1080v1920H0z"/>
    </clipPath>
    <clipPath id="clip1_217_2" class="clip1_217_2">
      <path fill="#fff" d="M0 0h542v396H0z" transform="translate(269 611)"/>
    </clipPath>
  </defs>
</svg>
